<svg fill="none" height="687" viewBox="0 0 1121 687" width="1121" xmlns="http://www.w3.org/2000/svg"><g fill="#3f3d56"><path d="m130.95 5.44862c1.612-1.82887 3.281-3.64879 4.962-5.4097711l1.76 1.6799111c-1.66 1.73773-3.307 3.53352-4.897 5.3377z"/><path d="m357.512 280.161c2.076-1.213 4.156-2.486 6.181-3.783l1.313 2.048c-2.054 1.315-4.162 2.606-6.267 3.835z"/><path d="m97 372.205h-20v26h20z"/><path d="m333.527 571.142-14.142-14.142-18.385 18.385 14.142 14.142z"/><path d="m351.263 90.084-14.142-14.1421-18.384 18.3848 14.142 14.1423z"/></g><path d="m420.483 682.802c-2.373 0-4.693-.704-6.667-2.023-1.973-1.318-3.511-3.193-4.419-5.385-.909-2.193-1.146-4.606-.683-6.934.463-2.327 1.606-4.465 3.284-6.144 1.678-1.678 3.816-2.821 6.144-3.284s4.741-.225 6.933.683c2.193.908 4.067 2.446 5.386 4.42 1.319 1.973 2.022 4.293 2.022 6.667-.003 3.181-1.269 6.231-3.518 8.481-2.25 2.25-5.3 3.515-8.482 3.519zm0-22c-1.978 0-3.911.586-5.555 1.685-1.645 1.099-2.927 2.66-3.683 4.488-.757 1.827-.955 3.838-.57 5.777.386 1.94 1.339 3.722 2.737 5.121 1.399 1.398 3.181 2.351 5.12 2.736 1.94.386 3.951.188 5.778-.569s3.389-2.038 4.488-3.683c1.099-1.644 1.685-3.578 1.685-5.555-.003-2.652-1.057-5.193-2.932-7.068s-4.416-2.929-7.068-2.932z" fill="#2f2e41"/><path d="m552.311 39.0914h-19.741v-19.7411h19.741zm-18.223-1.5186h16.704v-16.704h-16.704z" fill="#3f3d56"/><path d="m13.9548 590.171-13.465115-14.436 14.436215-13.465 13.4651 14.436zm-11.3188-14.361 11.3935 12.215 12.2153-11.393-11.3936-12.216z" fill="#2f2e41"/><path d="m240 204.205c9.941 0 18-8.059 18-18s-8.059-18-18-18-18 8.059-18 18 8.059 18 18 18z" fill="#408ba6"/><path d="m522 336c6.075 0 11-4.925 11-11s-4.925-11-11-11-11 4.925-11 11 4.925 11 11 11z" fill="#408ba6"/><path d="m388 385c4.971 0 9-4.029 9-9s-4.029-9-9-9-9 4.029-9 9 4.029 9 9 9z" fill="#413f47"/><path d="m699.46 9.40977c1.612-1.82887 3.281-3.64879 4.962-5.40977l1.76 1.67992c-1.66 1.73773-3.307 3.53352-4.897 5.33768z" fill="#3f3d56"/><path d="m926.022 284.123c2.076-1.214 4.156-2.486 6.182-3.784l1.312 2.048c-2.053 1.315-4.162 2.606-6.266 3.835z" fill="#3f3d56"/><path d="m676 336h-20v26h20z" fill="#3f3d56"/><path d="m902.037 453.103-14.142-14.142-18.385 18.385 14.142 14.142z" fill="#3f3d56"/><path d="m919.774 94.0452-14.142-14.1422-18.385 18.3848 14.142 14.1422z" fill="#3f3d56"/><path d="m988.994 686.763c-2.374 0-4.694-.704-6.667-2.023-1.974-1.318-3.512-3.192-4.42-5.385s-1.146-4.606-.683-6.933c.463-2.328 1.606-4.466 3.284-6.145 1.679-1.678 3.817-2.821 6.145-3.284 2.327-.463 4.74-.225 6.933.683s4.067 2.447 5.385 4.42c1.319 1.973 2.019 4.293 2.019 6.667 0 3.181-1.265 6.231-3.515 8.481s-5.3 3.515-8.481 3.519zm0-22c-1.978 0-3.912.586-5.556 1.685-1.645 1.099-2.926 2.661-3.683 4.488s-.955 3.838-.569 5.778c.386 1.939 1.338 3.721 2.737 5.12 1.398 1.398 3.18 2.351 5.12 2.737 1.94.385 3.95.187 5.777-.569 1.828-.757 3.39-2.039 4.488-3.684 1.099-1.644 1.686-3.577 1.686-5.555-.003-2.651-1.058-5.193-2.933-7.068-1.874-1.875-4.416-2.929-7.067-2.932z" fill="#2f2e41"/><path d="m1120.82 43.0526h-19.74v-19.7412h19.74zm-18.22-1.5186h16.7v-16.7041h-16.7z" fill="#3f3d56"/><path d="m582.465 594.133-13.465-14.437 14.436-13.465 13.465 14.437zm-11.319-14.362 11.394 12.215 12.215-11.393-11.393-12.215z" fill="#2f2e41"/><path d="m808.51 208.167c9.941 0 18-8.059 18-18 0-9.942-8.059-18-18-18s-18 8.058-18 18c0 9.941 8.059 18 18 18z" fill="#408ba6"/><path d="m1054 390c9.94 0 18-8.059 18-18s-8.06-18-18-18-18 8.059-18 18 8.06 18 18 18z" fill="#408ba6"/><path d="m791 602c9.941 0 18-8.059 18-18s-8.059-18-18-18-18 8.059-18 18 8.059 18 18 18z" fill="#413f47"/></svg>