<svg fill="none" height="305" viewBox="0 0 420 305" width="420" xmlns="http://www.w3.org/2000/svg"><path d="m276.548 70.1442h-132.762c-.209 0-.409-.0828-.556-.2301s-.23-.3471-.23-.5555c0-.2083.083-.4081.23-.5555.147-.1473.347-.23.556-.23h132.762c.208 0 .408.0827.555.23.147.1474.23.3472.23.5555 0 .2084-.083.4082-.23.5555s-.347.2301-.555.2301z" fill="#3f3d56"/><path d="m233.341 57.2846h-44.778c-.833 0-1.632-.3311-2.221-.9204-.59-.5892-.921-1.3885-.921-2.2219s.331-1.6326.921-2.2219c.589-.5893 1.388-.9204 2.221-.9204h44.778c.834 0 1.633.3311 2.222.9204s.92 1.3885.92 2.2219-.331 1.6327-.92 2.2219c-.589.5893-1.388.9204-2.222.9204z" fill="#ccc"/><path d="m186.494 206.461c-.32-.405-.544-.877-.654-1.382-.11-.504-.103-1.027.02-1.529 2.93-12.272 2.929-25.062-.001-37.334-.122-.502-.129-1.024-.019-1.529.11-.504.334-.977.654-1.382.313-.399.713-.722 1.17-.943s.958-.335 1.466-.334h31.322c.8.002 1.574.287 2.184.806.609.519 1.015 1.237 1.144 2.027 2.044 13.27 2.044 26.775 0 40.045-.129.79-.535 1.508-1.144 2.026-.61.519-1.384.805-2.184.806h-31.322c-.508.002-1.009-.112-1.466-.334-.457-.221-.857-.544-1.17-.943z" fill="#e6e6e6"/><path d="m229.253 152.586c-2.043-13.27-2.043-26.775 0-40.045.129-.79.535-1.508 1.144-2.026.61-.519 1.384-.805 2.184-.806h31.323c.507-.002 1.008.112 1.465.334.457.221.857.544 1.17.943.321.405.544.878.654 1.382s.103 1.027-.019 1.528c-2.93 12.273-2.93 25.063-.001 37.335.123.501.13 1.024.02 1.528-.11.505-.333.977-.654 1.382-.313.4-.713.722-1.17.944-.457.221-.958.335-1.465.334h-31.323c-.8-.002-1.574-.287-2.184-.806-.609-.519-1.015-1.237-1.144-2.027z" fill="#6c63ff"/><path d="m158.503 140.718c-.325-.412-.552-.892-.664-1.405s-.105-1.044.02-1.554c2.978-12.474 2.978-25.474-.001-37.9477-.124-.5097-.131-1.0411-.019-1.5537.112-.5127.339-.9931.664-1.4047.319-.4059.726-.7338 1.19-.9587s.973-.341 1.489-.3394h31.837c.814.0016 1.601.2918 2.22.819.62.5273 1.032 1.2573 1.164 2.0601 2.076 13.4881 2.076 27.2151 0 40.7031-.132.803-.544 1.533-1.164 2.06-.619.527-1.406.817-2.22.819h-31.837c-.516.001-1.025-.115-1.489-.34-.465-.224-.871-.552-1.19-.958z" fill="#6c63ff"/><g fill="#fff"><path d="m186.876 112.698h-16.771c-.625-.001-1.224-.25-1.666-.691-.442-.442-.69-1.041-.691-1.666v-1.001c.001-.625.249-1.224.691-1.666s1.041-.69 1.666-.691h16.771c.625.001 1.224.249 1.666.691.441.442.69 1.041.691 1.666v1.001c-.001.625-.25 1.224-.691 1.666-.442.441-1.041.69-1.666.691z"/><path d="m186.876 122.554h-16.771c-.625 0-1.224-.249-1.666-.691s-.69-1.041-.691-1.665v-1.001c.001-.625.249-1.224.691-1.666s1.041-.69 1.666-.691h16.771c.625.001 1.224.249 1.666.691.441.442.69 1.041.691 1.666v1.001c-.001.624-.25 1.223-.691 1.665-.442.442-1.041.691-1.666.691z"/><path d="m214.009 177.289h-16.437c-.624-.001-1.223-.25-1.665-.691-.442-.442-.691-1.041-.691-1.666v-.921c0-.625.249-1.224.691-1.666.442-.441 1.041-.69 1.665-.691h16.437c.625.001 1.224.25 1.666.691.442.442.691 1.041.691 1.666v.921c0 .625-.249 1.224-.691 1.666-.442.441-1.041.69-1.666.691z"/><path d="m214.009 188.926h-16.437c-.624-.001-1.223-.249-1.665-.691s-.691-1.041-.691-1.666v-.921c0-.625.249-1.224.691-1.665.442-.442 1.041-.691 1.665-.691h16.437c.625 0 1.224.249 1.666.691.442.441.691 1.04.691 1.665v.921c0 .625-.249 1.224-.691 1.666s-1.041.69-1.666.691z"/><path d="m214.009 200.563h-16.437c-.624-.001-1.223-.249-1.665-.691s-.691-1.041-.691-1.666v-.921c0-.624.249-1.224.691-1.665.442-.442 1.041-.691 1.665-.691h16.437c.625 0 1.224.249 1.666.691.442.441.691 1.041.691 1.665v.921c0 .625-.249 1.224-.691 1.666s-1.041.69-1.666.691z"/><path d="m254.837 130.064h-16.437c-.625-.001-1.224-.249-1.666-.691s-.69-1.041-.691-1.666v-.921c.001-.624.249-1.223.691-1.665s1.041-.691 1.666-.691h16.437c.625 0 1.224.249 1.666.691s.69 1.041.691 1.665v.921c-.001.625-.249 1.224-.691 1.666s-1.041.69-1.666.691z"/></g><path d="m144.814 250.993c-2.043-13.27-2.043-26.775 0-40.045.13-.79.535-1.508 1.145-2.027.609-.519 1.383-.804 2.183-.806h31.323c.508-.001 1.009.113 1.466.334.457.222.857.544 1.17.944.32.405.544.877.654 1.382.11.504.103 1.027-.02 1.528-2.93 12.272-2.93 25.062 0 37.335.123.501.13 1.024.02 1.528s-.334.977-.654 1.382c-.313.399-.713.722-1.17.943-.457.222-.958.336-1.466.334h-31.323c-.8-.001-1.574-.287-2.183-.805-.61-.519-1.015-1.237-1.145-2.027z" fill="#ff6584"/><path d="m169.826 227.501h-16.437c-.625-.001-1.224-.25-1.665-.691-.442-.442-.691-1.041-.691-1.666v-.921c0-.625.249-1.224.691-1.665.441-.442 1.04-.691 1.665-.691h16.437c.625 0 1.224.249 1.666.691.442.441.69 1.04.691 1.665v.921c-.001.625-.249 1.224-.691 1.666-.442.441-1.041.69-1.666.691z" fill="#fff"/><path d="m169.826 237.198h-16.437c-.625 0-1.224-.249-1.665-.691-.442-.442-.691-1.041-.691-1.665v-.921c0-.625.249-1.224.691-1.666.441-.442 1.04-.69 1.665-.691h16.437c.625.001 1.224.249 1.666.691s.69 1.041.691 1.666v.921c-.001.624-.249 1.223-.691 1.665s-1.041.691-1.666.691z" fill="#fff"/></svg>