<svg fill="none" height="581" viewBox="0 0 888 581" width="888" xmlns="http://www.w3.org/2000/svg"><path d="m589.98 133.76v65.68c-.002.607-.243 1.188-.673 1.617-.429.43-1.01.671-1.617.673h-1.63v342.15c0 9.468-3.762 18.548-10.457 25.243s-15.775 10.456-25.243 10.457h-213.79c-4.688 0-9.329-.924-13.66-2.719-4.33-1.794-8.265-4.424-11.579-7.739s-5.943-7.25-7.736-11.582c-1.793-4.331-2.716-8.972-2.715-13.66v-330.15h-1.18c-.428.001-.839-.168-1.143-.47-.303-.302-.475-.712-.477-1.14v-37.38c0-.213.042-.423.123-.62.082-.197.201-.375.351-.526.151-.15.329-.269.526-.351.197-.081.407-.123.62-.123h1.18v-14.08h-1.19c-.449-.002-.88-.182-1.197-.5-.316-.319-.494-.751-.493-1.2v-36.87c.001-.448.18-.877.496-1.194.317-.316.746-.495 1.194-.496h1.19v-19.22h-1.21c-.197.0003-.392-.0384-.574-.1136-.183-.0753-.348-.1858-.487-.3252-.14-.1393-.25-.3048-.325-.4869-.076-.1821-.114-.3772-.114-.5743v-20.12c-.001-.399.156-.7821.438-1.0652.281-.2831.663-.4431 1.062-.4448h1.21v-40.74c0-9.4655 3.761-18.5432 10.454-25.2363 6.693-6.69306 15.771-10.45335524 25.236-10.4537h213.79c9.467-.00004279 18.545 3.7598 25.24 10.4527s10.457 15.7708 10.46 25.2373v95.78h1.63c.607.002 1.188.243 1.617.672.43.43.671 1.011.673 1.618z" fill="#3f3d56"/><path d="m453.765 18.3067h-34.739c-1.404 0-2.542 1.1381-2.542 2.5419v3.0027c0 1.4038 1.138 2.5419 2.542 2.5419h34.739c1.404 0 2.542-1.1381 2.542-2.5419v-3.0027c0-1.4038-1.138-2.5419-2.542-2.5419z" fill="#e6e8ec"/><path d="m466.915 26.9366c2.533 0 4.587-2.0535 4.587-4.5866 0-2.5332-2.054-4.5867-4.587-4.5867s-4.587 2.0535-4.587 4.5867c0 2.5331 2.054 4.5866 4.587 4.5866z" fill="#e6e8ec"/><path d="m568.965 42.7498v504.0902c-.003 6.005-2.39 11.764-6.638 16.009-4.247 4.246-10.007 6.631-16.012 6.631h-204.65c-2.975.005-5.922-.577-8.672-1.713-2.749-1.136-5.248-2.803-7.352-4.906s-3.773-4.601-4.91-7.35c-1.137-2.75-1.72-5.696-1.716-8.671v-504.0902c0-2.9745.586-5.9199 1.724-8.668 1.138-2.748 2.806-5.245 4.91-7.3483 2.103-2.1032 4.6-3.7716 7.348-4.9098 2.748-1.1383 5.694-1.724 8.668-1.7239h30.63v3.93c0 4.9462 1.965 9.6899 5.463 13.1875 3.497 3.4975 8.241 5.4624 13.187 5.4625h104.08c4.946 0 9.69-1.965 13.188-5.4625 3.497-3.4976 5.462-8.2412 5.462-13.1875v-3.93h32.64c2.975-.001 5.92.5842 8.669 1.7221 2.748 1.138 5.246 2.8063 7.349 4.9098 2.104 2.1034 3.772 4.6007 4.91 7.3492 1.138 2.7484 1.723 5.6942 1.722 8.6689z" fill="#fff"/><g fill="#e6e6e6"><path d="m548.407 351.959h-208v27h208z"/><path d="m548.407 399.959h-208v27h208z"/><path d="m548.407 447.959h-208v27h208z"/></g><path d="m525.407 110.959c11.046 0 20-8.955 20-20.0002 0-11.0457-8.954-20-20-20s-20 8.9543-20 20c0 11.0452 8.954 20.0002 20 20.0002z" fill="#408ba6"/><path d="m547.99 157.959h-208v138h208z" fill="#e6e6e6"/><path d="m422.816 235.55c6.073 22.45 26.875 36.354 26.875 36.354s10.955-22.495 4.882-44.945-26.875-36.354-26.875-36.354-10.955 22.495-4.882 44.945z" fill="#3f3d56"/><path d="m431.74 230.725c16.665 16.222 18.7 41.16 18.7 41.16s-24.983-1.364-41.648-17.586c-16.665-16.223-18.701-41.161-18.701-41.161s24.984 1.364 41.649 17.587z" fill="#408ba6"/><path d="m478.065 235.55c-6.074 22.45-26.876 36.354-26.876 36.354s-10.955-22.495-4.882-44.945 26.875-36.354 26.875-36.354 10.956 22.495 4.883 44.945z" fill="#3f3d56"/><path d="m469.14 230.725c-16.664 16.222-18.7 41.16-18.7 41.16s24.984-1.364 41.649-17.586c16.664-16.223 18.7-41.161 18.7-41.161s-24.984 1.364-41.649 17.587z" fill="#408ba6"/></svg>