<svg fill="none" height="609" viewBox="0 0 1115 609" width="1115" xmlns="http://www.w3.org/2000/svg"><path d="m947.869 88.1658h-757.902v492.4072h757.902z" fill="#3f3d56"/><g fill="#d0cde1"><path d="m224.876 85.4098h-57.876v497.0002h57.876z"/><path d="m487.616 222.292h-151.581v1.837h151.581z"/><path d="m833.035 488.706h-208.538v-194.758h208.538zm-206.7-1.838h204.863v-191.083h-204.863z"/><path d="m626.043 294.194-1.254 1.344 206.7 192.921 1.254-1.344z"/><path d="m831.494 294.2-206.71 192.91 1.254 1.344 206.71-192.911z"/><path d="m550.085 357.336h-214.05v1.837h214.05z"/><path d="m550.085 390.408h-214.05v1.837h214.05z"/><path d="m550.085 423.48h-214.05v1.837h214.05z"/></g><path d="m514.328 63.8197c10.719 0 19.409-8.6901 19.409-19.4099 0-10.7197-8.69-19.4098-19.409-19.4098-10.72 0-19.41 8.6901-19.41 19.4098 0 10.7198 8.69 19.4099 19.41 19.4099z" fill="#3f3d56"/><path d="m568.918 63.8197c10.72 0 19.41-8.6901 19.41-19.4099 0-10.7197-8.69-19.4098-19.41-19.4098s-19.41 8.6901-19.41 19.4098c0 10.7198 8.69 19.4099 19.41 19.4099z" fill="#408ba6"/><path d="m623.508 63.8197c10.72 0 19.41-8.6901 19.41-19.4099 0-10.7197-8.69-19.4098-19.41-19.4098s-19.41 8.6901-19.41 19.4098c0 10.7198 8.69 19.4099 19.41 19.4099z" fill="#d0cde1"/><path d="m833.035 196.569h-497.919v-33.991h497.919zm-496.081-1.838h494.244v-30.316h-494.244z" fill="#d0cde1"/><path d="m384.434 264.41h-49c3.783-15.222 3.327-31.69 0-49h49c-6.859 16.333-6.859 32.667 0 49z" fill="#d0cde1"/><path d="m372.556 225.804h-29.697v5.939h29.697z" fill="#3f3d56"/><path d="m372.556 237.683h-29.697v5.939h29.697z" fill="#3f3d56"/><path d="m372.556 249.561h-29.697v5.94h29.697z" fill="#3f3d56"/><path d="m753.434 338.41h-49c3.783-15.222 3.327-31.69 0-49h49c-6.859 16.333-6.859 32.667 0 49z" fill="#d0cde1"/><path d="m741.556 299.804h-29.697v5.939h29.697z" fill="#3f3d56"/><path d="m741.556 311.683h-29.697v5.939h29.697z" fill="#3f3d56"/><path d="m741.556 323.561h-29.697v5.94h29.697z" fill="#3f3d56"/><path d="m816.434 233.41h-49c3.783-15.222 3.327-31.69 0-49h49c-6.859 16.333-6.859 32.667 0 49z" fill="#d0cde1"/><path d="m804.556 194.804h-29.697v5.939h29.697z" fill="#3f3d56"/><path d="m804.556 206.683h-29.697v5.939h29.697z" fill="#3f3d56"/><path d="m804.556 218.561h-29.697v5.94h29.697z" fill="#3f3d56"/><path d="m208.938 288.91h-26v-26h26zm-24-2h22v-22h-22z" fill="#3f3d56"/><path d="m209.434 346.91h-26v-26h26zm-24-2h22v-22h-22z" fill="#3f3d56"/><path d="m209.93 404.91h-26v-26h26zm-24-2h22v-22h-22z" fill="#3f3d56"/><path d="m184.434 387.41c4.419 0 8-3.582 8-8s-3.581-8-8-8c-4.418 0-8 3.582-8 8s3.582 8 8 8z" fill="#408ba6"/></svg>