<svg fill="none" height="580" viewBox="0 0 1195 580" width="1195" xmlns="http://www.w3.org/2000/svg"><path d="m780.869 43.756h-757.9023v492.407h757.9023z" fill="#fff"/><path d="m57.8762 41h-57.8762v497h57.8762z" fill="#3f3d56"/><g fill="#d0cde1"><path d="m320.616 177.882h-151.581v1.837h151.581z"/><path d="m459.043 249.785-1.254 1.343 206.7 192.921 1.254-1.344z"/><path d="m664.494 249.79-206.71 192.91 1.254 1.344 206.71-192.911z"/><path d="m383.085 312.926h-214.05v1.837h214.05z"/><path d="m383.085 345.998h-214.05v1.838h214.05z"/><path d="m383.085 379.07h-214.05v1.838h214.05z"/><path d="m666.035 152.159h-497.919v-33.991h497.919zm-496.081-1.837h494.244v-30.316h-494.244z"/></g><path d="m574.556 279.152h-29.697v5.939h29.697z" fill="#3f3d56"/><path d="m637.556 150.394h-29.697v5.939h29.697z" fill="#3f3d56"/><path d="m41.9383 244.5h-26v-26h26zm-24-2h22v-22h-22z" fill="#fff"/><path d="m42.4344 302.5h-26v-26h26zm-24-2h22v-22h-22z" fill="#fff"/><path d="m42.9305 360.5h-26v-26h26zm-24-2h22v-22h-22z" fill="#fff"/><path d="m17.4344 343c4.4183 0 8-3.582 8-8s-3.5817-8-8-8-8.00001 3.582-8.00001 8 3.58171 8 8.00001 8z" fill="#408ba6"/><path d="m623 170c11.046 0 20-8.954 20-20s-8.954-20-20-20-20 8.954-20 20 8.954 20 20 20z" fill="#408ba6"/><path d="m1194.98 133.76v65.68c0 .607-.24 1.188-.67 1.617-.43.43-1.01.671-1.62.673h-1.63v342.15c0 9.468-3.76 18.548-10.46 25.243-6.69 6.695-15.77 10.456-25.24 10.457h-213.79c-4.688 0-9.329-.924-13.66-2.719-4.33-1.794-8.265-4.424-11.579-7.739s-5.943-7.25-7.736-11.582c-1.793-4.331-2.716-8.972-2.715-13.66v-330.15h-1.18c-.428.001-.839-.168-1.143-.47-.303-.302-.475-.712-.477-1.14v-37.38c0-.213.042-.423.123-.62.082-.197.201-.375.351-.526.151-.15.329-.269.526-.351.197-.081.407-.123.62-.123h1.18v-14.08h-1.19c-.449-.002-.88-.182-1.197-.5-.316-.319-.494-.751-.493-1.2v-36.87c.001-.448.18-.877.496-1.194.317-.316.746-.495 1.194-.496h1.19v-19.22h-1.21c-.197.0003-.392-.0384-.574-.1136-.183-.0753-.348-.1858-.487-.3252-.14-.1393-.25-.3048-.325-.4869-.076-.1821-.114-.3772-.114-.5743v-20.12c-.001-.399.156-.7821.438-1.0652.281-.2831.663-.4431 1.062-.4448h1.21v-40.74c0-9.4655 3.761-18.5432 10.454-25.2363 6.693-6.69306 15.771-10.45335524 25.236-10.4537h213.79c9.47-.00004279 18.55 3.7598 25.24 10.4527 6.7 6.6929 10.46 15.7708 10.46 25.2373v95.78h1.63c.61.002 1.19.243 1.62.672.43.43.67 1.011.67 1.618z" fill="#3f3d56"/><path d="m1058.77 18.3067h-34.74c-1.41 0-2.55 1.1381-2.55 2.5419v3.0027c0 1.4038 1.14 2.5419 2.55 2.5419h34.74c1.4 0 2.54-1.1381 2.54-2.5419v-3.0027c0-1.4038-1.14-2.5419-2.54-2.5419z" fill="#e6e8ec"/><path d="m1071.92 26.9366c2.53 0 4.58-2.0535 4.58-4.5866 0-2.5332-2.05-4.5867-4.58-4.5867-2.54 0-4.59 2.0535-4.59 4.5867 0 2.5331 2.05 4.5866 4.59 4.5866z" fill="#e6e8ec"/><path d="m1173.96 42.7498v504.0902c0 6.005-2.39 11.764-6.63 16.009-4.25 4.246-10.01 6.631-16.01 6.631h-204.655c-2.975.005-5.922-.577-8.672-1.713-2.749-1.136-5.248-2.803-7.352-4.906s-3.773-4.601-4.91-7.35c-1.137-2.75-1.72-5.696-1.716-8.671v-504.0902c0-2.9745.586-5.9199 1.724-8.668 1.138-2.748 2.806-5.245 4.91-7.3483 2.103-2.1032 4.6-3.7716 7.348-4.9098 2.748-1.1383 5.694-1.724 8.668-1.7239h30.63v3.93c0 4.9462 1.965 9.6899 5.463 13.1875 3.497 3.4975 8.241 5.4624 13.187 5.4625h104.075c4.95 0 9.69-1.965 13.19-5.4625 3.5-3.4976 5.46-8.2412 5.47-13.1875v-3.93h32.64c2.97-.001 5.92.5842 8.66 1.7221 2.75 1.138 5.25 2.8063 7.35 4.9098 2.11 2.1034 3.77 4.6007 4.91 7.3492 1.14 2.7484 1.73 5.6942 1.72 8.6689z" fill="#fff"/><path d="m1153.41 351.959h-208.003v27h208.003z" fill="#e6e6e6"/><path d="m1153.41 399.959h-208.003v27h208.003z" fill="#e6e6e6"/><path d="m1153.41 447.959h-208.003v27h208.003z" fill="#e6e6e6"/><path d="m1130.41 110.959c11.04 0 20-8.955 20-20.0002 0-11.0457-8.96-20-20-20-11.05 0-20 8.9543-20 20 0 11.0452 8.95 20.0002 20 20.0002z" fill="#408ba6"/><path d="m1152.99 157.959h-208v138h208z" fill="#e6e6e6"/><path d="m1027.82 235.55c6.07 22.45 26.87 36.354 26.87 36.354s10.96-22.495 4.88-44.945c-6.07-22.45-26.87-36.354-26.87-36.354s-10.96 22.495-4.88 44.945z" fill="#3f3d56"/><path d="m1036.74 230.725c16.66 16.222 18.7 41.16 18.7 41.16s-24.98-1.364-41.65-17.586c-16.663-16.223-18.699-41.161-18.699-41.161s24.979 1.364 41.649 17.587z" fill="#408ba6"/><path d="m1083.06 235.55c-6.07 22.45-26.87 36.354-26.87 36.354s-10.96-22.495-4.88-44.945c6.07-22.45 26.87-36.354 26.87-36.354s10.96 22.495 4.88 44.945z" fill="#3f3d56"/><path d="m1074.14 230.725c-16.66 16.222-18.7 41.16-18.7 41.16s24.98-1.364 41.65-17.586c16.66-16.223 18.7-41.161 18.7-41.161s-24.98 1.364-41.65 17.587z" fill="#408ba6"/><path d="m664 275h-208v138h208z" fill="#e6e6e6"/><path d="m538.826 352.591c6.073 22.45 26.875 36.354 26.875 36.354s10.955-22.495 4.882-44.945-26.875-36.354-26.875-36.354-10.955 22.495-4.882 44.945z" fill="#3f3d56"/><path d="m547.75 347.766c16.665 16.223 18.7 41.161 18.7 41.161s-24.983-1.365-41.648-17.587c-16.665-16.223-18.701-41.161-18.701-41.161s24.984 1.365 41.649 17.587z" fill="#408ba6"/><path d="m594.075 352.591c-6.074 22.45-26.876 36.354-26.876 36.354s-10.955-22.495-4.882-44.945 26.875-36.354 26.875-36.354 10.956 22.495 4.883 44.945z" fill="#3f3d56"/><path d="m585.15 347.766c-16.664 16.223-18.7 41.161-18.7 41.161s24.984-1.365 41.649-17.587c16.664-16.223 18.7-41.161 18.7-41.161s-24.984 1.365-41.649 17.587z" fill="#408ba6"/></svg>